<svg width="65" height="65" viewBox="0 0 65 65" fill="none" xmlns="http://www.w3.org/2000/svg">
<g clip-path="url(#clip0_2:3)">
<path d="M26.027 36.088C25.6732 36.3757 25.3724 36.723 25.1382 37.1143C24.9093 37.495 24.7303 37.9036 24.6057 38.33C24.37 39.1976 24.2574 40.0939 24.2712 40.9928C24.26 41.8551 24.3821 42.7139 24.6331 43.539C24.7546 43.938 24.909 44.3262 25.0946 44.6998C25.286 45.0871 25.5155 45.4543 25.7797 45.7961C26.0613 46.1575 26.3729 46.4945 26.7112 46.8034C27.0395 47.1042 27.3934 47.3759 27.7687 47.6155C28.5086 48.0907 29.3311 48.4228 30.1936 48.5944C30.6394 48.6815 31.0925 48.7269 31.5468 48.7299C32.0051 48.7342 32.4628 48.6936 32.9132 48.6086C33.8314 48.4362 34.701 48.0656 35.4613 47.5226C35.4992 47.4942 35.5589 47.4487 35.6404 47.3928C35.6811 47.3644 35.7275 47.336 35.7778 47.2999L35.9388 47.1768C36.062 47.0953 36.1852 46.9768 36.3387 46.8593C36.4809 46.7266 36.6476 46.5864 36.8078 46.4177C37.1854 46.0359 37.5227 45.6161 37.8141 45.165C37.9839 44.8957 38.1364 44.6159 38.2709 44.3273C38.3486 44.1786 38.4045 44.0165 38.4755 43.8564C38.5078 43.7749 38.5324 43.6896 38.5646 43.6062L38.611 43.4793L38.649 43.3485C38.6726 43.2604 38.7077 43.1741 38.7276 43.0832C38.7475 42.9922 38.7712 42.9003 38.7958 42.8084C38.8176 42.7164 38.8318 42.6207 38.8527 42.526C38.8764 42.4312 38.8868 42.3346 38.901 42.237C38.9637 41.8352 38.9922 41.4288 38.9863 41.0222C38.9713 39.2145 38.3148 37.4709 37.1338 36.1023L36.7926 35.7346L36.3501 35.2409L35.4357 34.2175L33.6002 32.165C23.8078 21.2355 14.1461 10.668 13.5747 10.9769C13.3322 11.1001 19.2887 17.7702 19.5597 18.1312C20.893 19.8947 23.3833 22.9127 26.4402 26.5174C28.0765 28.4462 29.7212 30.368 31.3743 32.2825L34.0209 35.3385L35.3646 36.8831L35.6119 37.1626L35.7266 37.2896L35.755 37.3218L35.7702 37.3379L35.7778 37.3474L35.8071 37.39C35.8476 37.445 35.8893 37.4987 35.9322 37.5511C35.9748 37.6032 36.0061 37.6629 36.0459 37.717C36.3434 38.1502 36.5823 38.6208 36.7566 39.1165C36.9215 39.5998 37.025 40.1018 37.0646 40.6109C37.0848 40.8567 37.0899 41.1036 37.0797 41.35C37.0674 41.4713 37.0712 41.5917 37.0513 41.7101L37.0343 41.8864C37.0235 41.9445 37.014 42.0023 37.0058 42.0598C36.9374 42.4945 36.8181 42.9198 36.6505 43.3267C36.379 43.9928 35.9903 44.6048 35.5029 45.1337C35.4486 45.1881 35.3981 45.2427 35.3513 45.2977C35.2983 45.3489 35.2452 45.3972 35.1969 45.4465C35.1722 45.4711 35.1495 45.4967 35.1249 45.5194L35.0509 45.5829C35.0036 45.6246 34.96 45.6682 34.9173 45.708C34.8235 45.7762 34.7477 45.8539 34.6729 45.9117C34.5961 45.9686 34.5326 46.0254 34.4758 46.0728C33.6249 46.7601 32.5895 47.1799 31.5003 47.2791C30.9465 47.3362 30.3876 47.3193 29.8383 47.2289C29.7075 47.1948 29.5691 47.1834 29.4403 47.1426C29.3758 47.1237 29.3076 47.1142 29.2422 47.0934C29.1768 47.0725 29.1133 47.0526 29.047 47.0346C28.7858 46.9521 28.5308 46.8507 28.2842 46.7314C28.1553 46.6802 28.0397 46.6025 27.9127 46.5428L27.7327 46.4338L27.6398 46.3808L27.5527 46.3201C27.4935 46.2797 27.4334 46.2406 27.3726 46.2026C27.3164 46.1578 27.2589 46.1139 27.2002 46.0709C27.1717 46.0501 27.1405 46.0292 27.112 46.0074L27.0277 45.9354L26.8571 45.7961C26.8047 45.7456 26.751 45.696 26.696 45.6473C26.6695 45.6227 26.6401 45.6 26.6136 45.5744L26.5387 45.4957C26.4885 45.4436 26.4355 45.3934 26.3833 45.3422C26.3372 45.2873 26.2895 45.2329 26.2402 45.1792C26.2156 45.1527 26.1891 45.1271 26.1663 45.0996L26.1 45.0144C26.0555 44.9575 26.0052 44.9025 25.9617 44.8457C25.8811 44.7244 25.7835 44.6135 25.7096 44.4875C25.376 43.9855 25.1139 43.4395 24.9307 42.8652C24.8378 42.5642 24.7628 42.2579 24.7061 41.9479C24.6561 41.6272 24.6242 41.3039 24.6104 40.9795C24.5652 40.123 24.6379 39.2644 24.8264 38.4276C24.9302 38.0093 25.0895 37.6068 25.3002 37.2308C25.358 37.1399 25.4092 37.0432 25.4727 36.9541L25.6698 36.6888L25.8944 36.4424C25.973 36.3619 26.0612 36.2899 26.1445 36.2131C26.1586 36.1972 26.1659 36.1764 26.1648 36.1551C26.1638 36.1339 26.1545 36.1139 26.1389 36.0994C26.1332 36.0901 26.1255 36.0821 26.1163 36.0763C26.1071 36.0704 26.0967 36.0668 26.0858 36.0657C26.0749 36.0646 26.064 36.066 26.0538 36.0699C26.0436 36.0738 26.0344 36.08 26.027 36.088V36.088Z" fill="#E35925"/>
<path d="M23.1236 33.2377C22.597 33.7011 22.1405 34.2387 21.7686 34.8334C21.4027 35.4171 21.105 36.0409 20.8816 36.6926C20.4432 38.0214 20.2152 39.4106 20.206 40.8099C20.1725 42.1626 20.3613 43.5116 20.7651 44.803C20.9622 45.4325 21.2126 46.044 21.5137 46.6309C21.8239 47.2377 22.192 47.813 22.6129 48.3489C23.0534 48.9079 23.542 49.4273 24.0731 49.9011C24.5926 50.3647 25.1523 50.781 25.7456 51.1453C26.9183 51.8679 28.2152 52.3659 29.5701 52.614C30.9518 52.8656 32.3684 52.8572 33.7471 52.5894C35.174 52.3102 36.5269 51.7364 37.7194 50.9046C37.78 50.861 37.8729 50.7937 37.9989 50.7065C38.0605 50.662 38.1325 50.6156 38.2093 50.5597L38.4575 50.3701C38.6423 50.2394 38.8366 50.0631 39.0659 49.8774C39.2838 49.6765 39.5302 49.4586 39.7766 49.198C40.3546 48.6027 40.8685 47.9485 41.3098 47.2459C41.5687 46.8265 41.8007 46.391 42.0044 45.9421C42.1181 45.7099 42.2091 45.4607 42.3114 45.2105C42.3588 45.0845 42.3995 44.9547 42.446 44.8248L42.5132 44.6277L42.571 44.4269C42.608 44.2913 42.6554 44.1568 42.6866 44.0175L42.7871 43.5958C42.8184 43.4537 42.8411 43.3087 42.8695 43.1628C42.9017 43.0187 42.9188 42.87 42.9397 42.7212C43.0276 42.1075 43.0647 41.4875 43.0505 40.8677C42.9997 38.1059 41.9728 35.4512 40.1518 33.3742L39.7415 32.9316L39.2914 32.4303L38.3798 31.4098L36.55 29.363C26.7861 18.4638 17.15 7.92565 16.5796 8.23456C16.3379 8.35775 22.2765 15.0098 22.5475 15.3699C23.877 17.1296 26.3606 20.1391 29.4081 23.7353C31.0401 25.6589 32.6804 27.5756 34.3289 29.4852L36.967 32.5336L38.3059 34.0735L38.4566 34.2431L38.5968 34.3985C38.6859 34.4989 38.7958 34.6117 38.8555 34.6951L39.0697 34.9623C39.1427 35.0495 39.2024 35.1461 39.2715 35.2371C40.5478 37.0245 41.2068 39.1791 41.1487 41.3747C41.1354 41.5803 41.1364 41.784 41.1108 41.984C41.1013 42.0844 41.0947 42.1849 41.0833 42.2844L41.0407 42.579C40.9323 43.325 40.7374 44.0558 40.4598 44.7566C40.2158 45.3788 39.9094 45.9747 39.5454 46.5352C39.232 47.0149 38.8802 47.4684 38.4936 47.8912C38.4032 47.9854 38.3164 48.0779 38.233 48.1689L37.9743 48.4191C37.9316 48.4589 37.8928 48.5005 37.8511 48.5384L37.727 48.6465L37.4948 48.854C37.3384 48.9753 37.2029 49.0985 37.0722 49.1961C36.9395 49.2927 36.8267 49.3856 36.7253 49.4614C35.2327 50.5717 33.4506 51.2263 31.5941 51.3462C30.6746 51.4121 29.7503 51.3541 28.8461 51.1737C28.6244 51.1178 28.3979 51.0808 28.18 51.0117C28.071 50.9785 27.9592 50.9539 27.8512 50.9169L27.5261 50.8079C27.0931 50.6565 26.6714 50.4748 26.2639 50.264C26.0555 50.1664 25.8612 50.0404 25.6575 49.9305C25.5589 49.8698 25.4632 49.8044 25.3637 49.7428L25.2169 49.65L25.0747 49.5476L24.7885 49.3458L24.5128 49.1269C24.4664 49.0899 24.419 49.0549 24.3735 49.017L24.2408 48.9004L23.9727 48.6664L23.7178 48.42C23.6751 48.3793 23.6315 48.3395 23.5898 48.2968L23.4695 48.167L23.226 47.9083L22.9967 47.6363C22.9587 47.5909 22.918 47.5473 22.881 47.5008L22.774 47.3587C22.7019 47.2639 22.6261 47.1711 22.556 47.0744C22.4253 46.8754 22.2793 46.685 22.1599 46.4765C21.0999 44.7657 20.5405 42.7921 20.5452 40.7796C20.5249 39.4292 20.7122 38.0837 21.1005 36.7902C21.303 36.1473 21.5807 35.5306 21.9278 34.9528C22.0206 34.8107 22.1069 34.6638 22.2073 34.5264C22.3096 34.389 22.412 34.2516 22.5172 34.1161L22.8621 33.7295C22.9815 33.6035 23.1113 33.486 23.2383 33.3656C23.2587 33.3487 23.2723 33.325 23.2765 33.2988C23.2807 33.2727 23.2752 33.2459 23.261 33.2235C23.2326 33.1856 23.1701 33.1846 23.1246 33.2377H23.1236Z" fill="#E35925"/>
<path d="M20.2212 30.3873C19.5223 31.0267 18.9103 31.755 18.4008 32.5535C17.8972 33.34 17.4803 34.1788 17.1576 35.0552C16.5167 36.8444 16.1735 38.7267 16.1418 40.627C16.0866 42.4704 16.3428 44.31 16.8999 46.0681C17.172 46.9276 17.5179 47.7621 17.9337 48.5621C18.3622 49.3887 18.8686 50.1724 19.446 50.9027C21.8033 53.9137 25.1847 55.9536 28.9475 56.6347C30.8135 56.9614 32.7238 56.9398 34.5819 56.5712C36.5177 56.1852 38.3544 55.4081 39.9794 54.2875L40.3584 54.0222C40.4418 53.9615 40.5385 53.8971 40.6427 53.8213L40.9762 53.5654C41.2236 53.3854 41.4879 53.1504 41.7931 52.8955C42.0868 52.6264 42.4137 52.3307 42.7454 51.9791C43.5234 51.1698 44.2136 50.2805 44.8045 49.3259C45.153 48.7563 45.4647 48.1651 45.7379 47.5558C45.8895 47.2393 46.0127 46.9039 46.1472 46.5646C46.2107 46.394 46.2657 46.2178 46.3273 46.0425L46.4154 45.7772L46.4931 45.5043C46.5433 45.3214 46.603 45.1394 46.6447 44.9509L46.7774 44.3823C46.8191 44.1909 46.8504 43.9957 46.8873 43.7995C46.9271 43.6043 46.9518 43.4044 46.9783 43.2045C47.0918 42.3789 47.1377 41.5454 47.1157 40.7123C47.0287 36.9965 45.6311 33.4311 43.1699 30.646L42.6914 30.1305C42.5331 29.959 42.3872 29.7913 42.2346 29.6207L41.325 28.6021L39.4999 26.5619C29.7643 15.6921 20.1548 5.18332 19.5844 5.49129C19.3427 5.61542 25.2652 12.2495 25.5352 12.6077C26.86 14.3636 29.337 17.3646 32.3759 20.9512C34.0029 22.8699 35.6382 24.7815 37.2816 26.6861L39.9121 29.7259L41.2482 31.262C41.3591 31.3908 41.469 31.5083 41.5799 31.6315C41.6888 31.7547 41.8063 31.8741 41.903 31.9992L42.2072 32.3716C42.3095 32.4948 42.3986 32.6274 42.4952 32.7544C44.324 35.2595 45.28 38.2955 45.2167 41.3965C45.2025 41.6864 45.2006 41.9745 45.1693 42.2569C45.1561 42.399 45.1466 42.5402 45.1314 42.6795L45.0746 43.0964C44.9263 44.1533 44.6557 45.1893 44.2682 46.1837C43.9249 47.0717 43.4918 47.9223 42.9757 48.7223C42.5329 49.4047 42.034 50.0491 41.4842 50.6487L41.1146 51.0391L40.7517 51.3907C40.692 51.4476 40.6361 51.5044 40.5773 51.5575L40.403 51.71L40.0741 52C39.8533 52.1734 39.6581 52.3421 39.4724 52.4804L38.9759 52.8509C36.8422 54.385 34.3131 55.2743 31.6889 55.4132C30.4029 55.4882 29.1126 55.3894 27.8531 55.1195C27.5422 55.0408 27.2276 54.9773 26.9216 54.8797C26.7681 54.8323 26.6117 54.7925 26.461 54.7404L26.0062 54.5812C25.4014 54.3607 24.8128 54.0982 24.2446 53.7957C23.9556 53.6526 23.6837 53.4782 23.4041 53.3171C23.2667 53.2319 23.1341 53.1399 22.9976 53.0518L22.7948 52.9182L22.5987 52.7761L22.2054 52.488L21.8264 52.181C21.7638 52.1298 21.6994 52.0796 21.6369 52.0275L21.4549 51.8645C21.3336 51.7555 21.2104 51.6475 21.0901 51.5366L20.7414 51.1926C20.6826 51.1348 20.6239 51.078 20.567 51.0192L20.4003 50.8373L20.0686 50.4734L19.754 50.0925C19.7019 50.029 19.6469 49.9665 19.5967 49.9011L19.4489 49.7021C19.3513 49.5694 19.2489 49.4377 19.1532 49.3022C18.9713 49.0255 18.7761 48.7554 18.6112 48.4645C17.1785 46.0872 16.4409 43.3559 16.482 40.5806C16.486 38.7346 16.7881 36.9015 17.3765 35.1518C17.6774 34.2856 18.073 33.4552 18.5562 32.6758C18.6832 32.4834 18.8055 32.2854 18.9419 32.0977C19.0803 31.913 19.2205 31.7272 19.3655 31.5434C19.5171 31.3665 19.6719 31.1909 19.8298 31.0165C19.9899 30.845 20.1615 30.683 20.332 30.5191C20.3586 30.5002 20.3781 30.4729 20.3873 30.4416C20.3966 30.4104 20.3952 30.3769 20.3832 30.3466C20.3567 30.3068 20.2837 30.3163 20.2221 30.3873H20.2212Z" fill="#E35925"/>
<path d="M17.3187 27.537C16.4473 28.3518 15.6794 29.2706 15.0321 30.2727C14.3907 31.262 13.8546 32.3158 13.4326 33.4168C12.5896 35.6668 12.1318 38.0429 12.0785 40.4451C12.0011 42.7783 12.3235 45.1076 13.0318 47.3322C13.3796 48.4219 13.8216 49.4793 14.3527 50.4924C14.8995 51.5387 15.5443 52.5308 16.2782 53.4555C17.0375 54.4093 17.8811 55.2929 18.7988 56.0955C19.7003 56.8844 20.6715 57.5901 21.7003 58.2039C23.7382 59.4222 25.9839 60.253 28.324 60.6543C29.4886 60.8527 30.6687 60.945 31.85 60.9301C33.0481 60.9162 34.2422 60.7899 35.4167 60.5529C37.8614 60.0608 40.1818 59.0811 42.2394 57.6723L42.717 57.3359C42.8231 57.2601 42.9444 57.1786 43.0751 57.0819L43.4968 56.7588C43.8067 56.5295 44.1412 56.2376 44.5212 55.9135C44.8898 55.5771 45.2982 55.2028 45.7151 54.7594C46.6934 53.7366 47.5603 52.6128 48.3011 51.4068C48.7391 50.6871 49.1306 49.9401 49.4733 49.1705C49.66 48.7706 49.8173 48.348 49.984 47.9197C50.0627 47.7036 50.1338 47.4838 50.2086 47.2611L50.3185 46.9256L50.4161 46.5826C50.4796 46.3533 50.5507 46.123 50.6057 45.8861L50.7696 45.1707C50.8208 44.9291 50.8606 44.6836 50.906 44.4373C50.9534 44.1909 50.9847 43.9407 51.0179 43.6887C51.1568 42.6518 51.2117 41.6054 51.1818 40.5597C51.0587 35.8895 49.2905 31.4127 46.1889 27.9189L45.6412 27.3295L45.573 27.2556L45.5161 27.193L45.4024 27.066L45.1769 26.813L44.2701 25.7972L42.4507 23.7618C32.7426 12.9185 23.1596 2.43909 22.5892 2.74895C22.3485 2.87214 28.2539 9.48917 28.523 9.84641C29.8439 11.5976 32.3134 14.591 35.3428 18.1682C36.9654 20.0817 38.5962 21.9883 40.2352 23.8878L42.8581 26.9201L44.1895 28.4524C44.2416 28.514 44.3089 28.585 44.3724 28.6561L44.5638 28.8665C44.6927 29.0095 44.8168 29.1375 44.9514 29.3042L45.3446 29.7818C45.4763 29.9401 45.5948 30.1097 45.7199 30.2736C48.1013 33.4966 49.3545 37.4144 49.2857 41.4211C49.2705 41.7944 49.2667 42.1649 49.2288 42.5298C49.2136 42.7136 49.2004 42.8955 49.1814 43.0765L49.1113 43.6148C48.9228 44.9829 48.5762 46.3245 48.0784 47.6126C47.6355 48.7655 47.0754 49.8699 46.4069 50.9084C45.8348 51.7943 45.1887 52.6302 44.4757 53.4072L43.9981 53.9103C43.8389 54.0686 43.6816 54.2174 43.53 54.3633C43.4542 54.4362 43.3803 54.5092 43.3045 54.5774L43.0799 54.7745L42.6535 55.1469C42.3692 55.3725 42.1143 55.5876 41.8727 55.7657C41.631 55.9429 41.4178 56.1059 41.2264 56.2405C40.525 56.7312 39.7915 57.1744 39.0308 57.5671C38.2734 57.9472 37.4915 58.2764 36.6903 58.5526C35.1055 59.0873 33.4542 59.3995 31.7837 59.4803C30.1315 59.5634 28.4756 59.4232 26.8609 59.0633C26.461 58.9629 26.0555 58.8738 25.6622 58.7478C25.4651 58.6862 25.2652 58.6312 25.0709 58.563L24.4863 58.3545C23.7101 58.0649 22.9549 57.7216 22.2263 57.3273C21.8567 57.1378 21.507 56.9161 21.1507 56.7029C20.9754 56.592 20.8049 56.4755 20.6315 56.3599L20.3728 56.1864L20.1226 56.0026L19.6223 55.6302L19.14 55.236C19.0604 55.1697 18.9789 55.1043 18.9002 55.037L18.669 54.8286C18.5155 54.6883 18.3601 54.55 18.2075 54.4078L17.764 53.9653C17.6911 53.8904 17.6162 53.8175 17.5442 53.7417L17.3329 53.5086C17.1917 53.3532 17.0496 53.1977 16.9112 53.0395L16.5104 52.5496C16.4441 52.4672 16.3768 52.3866 16.3123 52.3032L16.1238 52.0474C15.9987 51.8768 15.8708 51.7062 15.7504 51.5328C15.5164 51.1775 15.2728 50.8269 15.0625 50.4554C13.2566 47.4111 12.3406 43.9213 12.4187 40.3825C12.4417 39.2035 12.5545 38.0279 12.756 36.866C12.9538 35.7245 13.2538 34.6031 13.6525 33.5153C14.0518 32.4248 14.5657 31.3798 15.1857 30.3978C15.3467 30.1542 15.504 29.9069 15.6784 29.671C15.8528 29.436 16.0309 29.2019 16.2138 28.9707C16.4046 28.7464 16.5991 28.5241 16.7975 28.3036C16.9993 28.0856 17.2135 27.88 17.4267 27.6715C17.5035 27.5995 17.5328 27.5105 17.5082 27.4707C17.4836 27.4309 17.3973 27.4489 17.3187 27.537V27.537Z" fill="#E35925"/>
<path d="M14.4153 24.6876C13.3716 25.6776 12.4477 26.7866 11.6625 27.9918C10.8838 29.1844 10.2291 30.4536 9.70859 31.7794C8.66332 34.4897 8.09058 37.3592 8.01524 40.2631C7.91563 43.0867 8.30482 45.9062 9.16562 48.5972C9.58843 49.9173 10.1259 51.198 10.7718 52.4245C11.4374 53.6903 12.2207 54.8905 13.1114 56.0093C13.3435 56.303 13.588 56.5844 13.8278 56.8678C13.9472 57.0099 14.0741 57.1445 14.1992 57.28L14.5764 57.6837L14.7659 57.8845L14.9611 58.0769L15.3534 58.4588C15.6121 58.7146 15.8888 58.9525 16.1607 59.1941C17.2532 60.1454 18.4299 60.9955 19.6763 61.7337C22.1472 63.2004 24.868 64.1979 27.7014 64.6759C29.1055 64.9112 30.5279 65.019 31.9514 64.9981C33.3961 64.9778 34.8357 64.8226 36.2516 64.5347C39.2044 63.9354 42.0079 62.7525 44.4975 61.0552L45.0755 60.6515C45.2034 60.5605 45.3503 60.4601 45.5067 60.3445L46.0155 59.9541C46.3879 59.6745 46.7926 59.3249 47.2493 58.9326C47.6928 58.528 48.1817 58.076 48.6849 57.5415C50.5733 55.5696 52.1035 53.2836 53.2068 50.7861C53.4304 50.3029 53.6218 49.7931 53.8199 49.2747C53.9147 49.0151 53.9999 48.7479 54.09 48.4806L54.2217 48.0751L54.3392 47.6619C54.415 47.3852 54.4984 47.1066 54.5647 46.8214C54.631 46.5362 54.6974 46.2491 54.7609 45.9591C54.8215 45.6682 54.8708 45.3735 54.9238 45.076C54.9797 44.7794 55.0186 44.478 55.0565 44.1738C55.2208 42.9251 55.2842 41.6651 55.246 40.4062C55.0831 34.7832 52.9454 29.397 49.208 25.1927L48.5911 24.5293L48.5153 24.446L48.4584 24.3834L48.3447 24.2574L48.1201 24.0044L47.2161 22.9904L45.4015 20.9617C35.7209 10.1468 26.1645 -0.30323 25.595 0.00663234C25.3524 0.130767 31.2426 6.72884 31.5108 7.08514C32.827 8.83155 35.2888 11.8184 38.3107 15.386C39.9282 17.2945 41.554 19.196 43.1879 21.0905L45.8033 24.1143L47.1318 25.6418L47.1735 25.6892L47.1943 25.7129L47.2218 25.7432L47.3308 25.8617L47.5487 26.1004L47.7657 26.3383L47.8197 26.398L47.8463 26.4283L47.8766 26.4643L47.9998 26.6093L48.4831 27.1911C48.6442 27.3854 48.791 27.591 48.9436 27.7919C51.8774 31.7325 53.4277 36.5316 53.3537 41.4438C53.3385 41.9015 53.3309 42.3554 53.2883 42.8036C53.2693 43.0273 53.2532 43.2509 53.2305 43.4726L53.1462 44.1331C52.7073 47.325 51.5785 50.383 49.8381 53.0945C49.1366 54.1835 48.3435 55.2106 47.4672 56.1647L46.8807 56.7806C46.6864 56.9749 46.4931 57.1568 46.3074 57.3349C46.2136 57.424 46.1236 57.5121 46.0316 57.5955L45.7559 57.8381C45.5749 57.9964 45.4015 58.1499 45.2319 58.2929C44.8841 58.5706 44.5686 58.8312 44.2729 59.051C43.9754 59.269 43.711 59.4642 43.4769 59.6291C42.6128 60.2283 41.7089 60.7681 40.7716 61.2447C39.8387 61.7071 38.8756 62.106 37.889 62.4387C35.9463 63.0841 33.9235 63.4572 31.8784 63.5473C29.8601 63.6393 27.8387 63.4582 25.8688 63.0091C25.3789 62.8859 24.8852 62.7713 24.4038 62.6159C24.1622 62.5401 23.9187 62.4699 23.6799 62.3856L22.9654 62.1279C22.018 61.7687 21.0967 61.3444 20.2079 60.8581C19.7578 60.624 19.3304 60.353 18.8964 60.0905C18.6842 59.9531 18.4748 59.81 18.2653 59.6689L17.9517 59.4547L17.6456 59.2301L17.0392 58.7734L16.4545 58.2901C16.3569 58.2096 16.2593 58.129 16.1636 58.0466L15.8821 57.7936C15.6955 57.623 15.5078 57.4534 15.325 57.279L14.7867 56.7389C14.6977 56.6479 14.6076 56.5579 14.5205 56.465L14.2637 56.1808C14.0931 55.9903 13.9216 55.7998 13.7539 55.6065L13.2677 55.0077C13.1881 54.9063 13.1066 54.8077 13.028 54.7044L12.7987 54.3917C12.6471 54.1833 12.4936 53.9748 12.3467 53.7616C12.0624 53.3285 11.7705 52.8974 11.5128 52.4444C9.33376 48.7331 8.23984 44.4848 8.35543 40.1826C8.39095 38.7536 8.53923 37.3297 8.7989 35.9241C9.05303 34.5443 9.43074 33.1901 9.92748 31.8779C10.4255 30.5635 11.0581 29.3041 11.8151 28.1198C12.0103 27.826 12.2036 27.5285 12.4121 27.2432C12.6243 26.959 12.8404 26.6766 13.0621 26.398C13.2914 26.1263 13.5258 25.8572 13.7652 25.5906C14.0078 25.3272 14.2637 25.0761 14.5205 24.8231C14.6124 24.735 14.655 24.6355 14.6304 24.5928C14.6057 24.5502 14.5119 24.5815 14.4153 24.6876V24.6876Z" fill="#E35925"/>
</g>
<defs>
<clipPath id="clip0_2:3">
<rect width="65" height="65" fill="white"/>
</clipPath>
</defs>
</svg>
